PathFileType	4	(X/Y/Z)	 1.9Hzhigh3min.trc
DataRate	CameraRate	NumFrames	NumMarkers	Units	OrigDataRate	OrigDataStartFrame	OrigNumFrames
200	200	11	35	m	200	1	1000
Frame#	Time	C7			LSH			RSH			MAN			RASI			LASI			HIPR			HIPL			RPSI			LPSI			COX			RTHI1			RTHI2			RTHI3			RTHI4			RSHA1			RSHA2			RSHA3			RSHA4			RHEEL			RMET5			RMET1			RTOE			LTHI1			LTHI2			LTHI3			LTHI4			LSHA1			LSHA2			LSHA3			LSHA4			LHEEL			LMET5			LMET1			LTOE			
		X1	Y1	Z1	X2	Y2	Z2	X3	Y3	Z3	X4	Y4	Z4	X5	Y5	Z5	X6	Y6	Z6	X7	Y7	Z7	X8	Y8	Z8	X9	Y9	Z9	X10	Y10	Z10	X11	Y11	Z11	X12	Y12	Z12	X13	Y13	Z13	X14	Y14	Z14	X15	Y15	Z15	X16	Y16	Z16	X17	Y17	Z17	X18	Y18	Z18	X19	Y19	Z19	X20	Y20	Z20	X21	Y21	Z21	X22	Y22	Z22	X23	Y23	Z23	X24	Y24	Z24	X25	Y25	Z25	X26	Y26	Z26	X27	Y27	Z27	X28	Y28	Z28	X29	Y29	Z29	X30	Y30	Z30	X31	Y31	Z31	X32	Y32	Z32	X33	Y33	Z33	X34	Y34	Z34	X35	Y35	Z35	
1	0.0050	-0.341955	1.540455	-0.539366	-0.279091	1.527813	-0.762697	-0.280109	1.519552	-0.331004	-0.183247	1.479487	-0.540915	-0.221247	1.023066	-0.426290	-0.197846	1.018143	-0.642287	-0.279807	1.071442	-0.381463	-0.256008	1.073530	-0.705852	-0.398756	1.061072	-0.496099	-0.392784	1.055768	-0.608218	-0.401818	1.069586	-0.548242	-0.276672	0.775886	-0.343005	-0.249982	0.724588	-0.325380	-0.192619	0.754323	-0.316672	-0.212253	0.810269	-0.335063	-0.317156	0.367503	-0.327388	-0.327758	0.328185	-0.341466	-0.269009	0.316748	-0.330232	-0.262140	0.354603	-0.321397	-0.473201	0.074690	-0.441198	-0.311629	0.027074	-0.331637	-0.252199	0.042278	-0.412615	-0.222860	0.030211	-0.406636	-0.208994	0.773152	-0.748922	-0.181943	0.717757	-0.753853	-0.124120	0.738361	-0.733714	-0.142786	0.795729	-0.726579	-0.257494	0.349729	-0.752560	-0.283123	0.318223	-0.751441	-0.232994	0.286431	-0.730920	-0.212541	0.325559	-0.735061	-0.476838	0.072367	-0.684409	-0.299310	0.025841	-0.759808	-0.248761	0.037398	-0.671093	-0.219893	0.028067	-0.675750	
2	0.0100	-0.342260	1.542191	-0.539373	-0.279380	1.529673	-0.762699	-0.280203	1.521382	-0.330988	-0.183661	1.481192	-0.540988	-0.220517	1.025475	-0.426112	-0.197395	1.020777	-0.642542	-0.279443	1.073611	-0.381341	-0.256695	1.075659	-0.705977	-0.398276	1.062365	-0.495814	-0.392541	1.056932	-0.607747	-0.401346	1.070859	-0.547891	-0.276031	0.777981	-0.342483	-0.249487	0.726972	-0.325013	-0.191787	0.756198	-0.316616	-0.211294	0.811908	-0.335297	-0.317453	0.368485	-0.327146	-0.328091	0.329340	-0.341000	-0.269174	0.317802	-0.330075	-0.262393	0.355885	-0.321329	-0.473051	0.075390	-0.440806	-0.311511	0.027037	-0.331559	-0.252099	0.042236	-0.412635	-0.222790	0.030262	-0.406680	-0.208562	0.775477	-0.748717	-0.181543	0.720016	-0.753619	-0.123834	0.740511	-0.733039	-0.142454	0.797902	-0.725880	-0.257336	0.350996	-0.752549	-0.282917	0.319498	-0.751589	-0.232826	0.287730	-0.730799	-0.212429	0.326925	-0.734875	-0.476790	0.072639	-0.684793	-0.299231	0.025794	-0.759886	-0.248790	0.037393	-0.671121	-0.219936	0.028076	-0.675743	
3	0.0150	-0.342558	1.544494	-0.539381	-0.279777	1.532202	-0.762732	-0.280313	1.523901	-0.331025	-0.184142	1.483596	-0.541099	-0.219527	1.028497	-0.425879	-0.196729	1.023955	-0.642636	-0.278832	1.076393	-0.381178	-0.256959	1.078185	-0.705982	-0.397541	1.064308	-0.495527	-0.392083	1.058723	-0.607313	-0.400618	1.072762	-0.547514	-0.275687	0.780584	-0.342124	-0.249429	0.729561	-0.324704	-0.191516	0.758356	-0.316478	-0.210699	0.814126	-0.335281	-0.318858	0.369186	-0.327266	-0.329126	0.329975	-0.341254	-0.270189	0.318831	-0.330118	-0.263724	0.357013	-0.321221	-0.472938	0.076004	-0.440553	-0.311428	0.026997	-0.331502	-0.252063	0.042193	-0.412614	-0.222758	0.030340	-0.406672	-0.208723	0.777889	-0.748612	-0.181921	0.722312	-0.753575	-0.124152	0.742546	-0.732941	-0.142534	0.799988	-0.725708	-0.258145	0.352047	-0.752729	-0.283581	0.320461	-0.751821	-0.233390	0.288917	-0.730872	-0.213174	0.328220	-0.734963	-0.476806	0.072775	-0.684988	-0.299206	0.025753	-0.759956	-0.248836	0.037387	-0.671153	-0.219998	0.028073	-0.675743	
4	0.0200	-0.342886	1.546973	-0.539395	-0.280213	1.534907	-0.762770	-0.280431	1.526596	-0.331076	-0.184626	1.486190	-0.541220	-0.218480	1.031670	-0.425632	-0.196003	1.027258	-0.642683	-0.278157	1.079344	-0.380999	-0.257099	1.080829	-0.705951	-0.396738	1.066429	-0.495222	-0.391538	1.060701	-0.606873	-0.399825	1.074841	-0.547128	-0.275430	0.783298	-0.341803	-0.249499	0.732234	-0.324460	-0.191352	0.760556	-0.316324	-0.210144	0.816368	-0.335215	-0.320430	0.369922	-0.327423	-0.330314	0.330648	-0.341513	-0.271342	0.319923	-0.330158	-0.265219	0.358204	-0.321139	-0.472828	0.076612	-0.440311	-0.311351	0.026959	-0.331450	-0.252037	0.042148	-0.412592	-0.222737	0.030404	-0.406667	-0.209018	0.780331	-0.748524	-0.182471	0.724625	-0.753562	-0.124605	0.744572	-0.732965	-0.142706	0.802077	-0.725652	-0.259201	0.353071	-0.752946	-0.284470	0.321391	-0.752063	-0.234138	0.290101	-0.730993	-0.214134	0.329519	-0.735119	-0.476818	0.072937	-0.685158	-0.299198	0.025719	-0.760007	-0.248879	0.037380	-0.671186	-0.220059	0.028072	-0.675748	
5	0.0250	-0.343256	1.549945	-0.539422	-0.280744	1.538144	-0.762825	-0.280575	1.529849	-0.331171	-0.185144	1.489364	-0.541372	-0.217238	1.035322	-0.425343	-0.195099	1.030960	-0.642588	-0.277220	1.082789	-0.380863	-0.256880	1.083824	-0.705814	-0.395730	1.069085	-0.494888	-0.390782	1.063214	-0.606434	-0.398835	1.077437	-0.546722	-0.275431	0.786390	-0.341625	-0.249941	0.735130	-0.324328	-0.191585	0.762966	-0.316119	-0.209852	0.818890	-0.334989	-0.322695	0.370602	-0.327798	-0.332000	0.331179	-0.342091	-0.273045	0.321107	-0.330277	-0.267391	0.359442	-0.321066	-0.472739	0.077186	-0.440128	-0.311297	0.026923	-0.331413	-0.252047	0.042103	-0.412555	-0.222746	0.030443	-0.406658	-0.209755	0.782875	-0.748496	-0.183599	0.726997	-0.753665	-0.125515	0.746552	-0.733396	-0.143186	0.804151	-0.725978	-0.261004	0.353990	-0.753289	-0.286035	0.322151	-0.752344	-0.235457	0.291248	-0.731266	-0.215757	0.330807	-0.735481	-0.476847	0.073096	-0.685219	-0.299222	0.025692	-0.760043	-0.248925	0.037373	-0.671223	-0.220127	0.028067	-0.675760	
6	0.0300	-0.343708	1.553393	-0.539471	-0.281375	1.541842	-0.762894	-0.280758	1.533591	-0.331311	-0.185673	1.493062	-0.541550	-0.215843	1.039376	-0.425019	-0.194038	1.034994	-0.642371	-0.276034	1.086696	-0.380779	-0.256331	1.087170	-0.705582	-0.394552	1.072226	-0.494487	-0.389798	1.066240	-0.605970	-0.397679	1.080497	-0.546293	-0.275659	0.789794	-0.341546	-0.250711	0.738276	-0.324313	-0.192113	0.765577	-0.315915	-0.209806	0.821692	-0.334651	-0.325378	0.371343	-0.328344	-0.334056	0.331820	-0.342680	-0.275109	0.322484	-0.330393	-0.269982	0.360853	-0.321028	-0.472665	0.077779	-0.439935	-0.311260	0.026889	-0.331383	-0.252067	0.042019	-0.412533	-0.222784	0.030422	-0.406669	-0.210851	0.785560	-0.748501	-0.185189	0.729472	-0.753837	-0.126806	0.748551	-0.734126	-0.143918	0.806273	-0.726594	-0.263439	0.354903	-0.753720	-0.288173	0.322862	-0.752650	-0.237258	0.292437	-0.731664	-0.217930	0.332162	-0.736017	-0.476857	0.073352	-0.685224	-0.299272	0.025670	-0.760052	-0.248967	0.037366	-0.671264	-0.220196	0.028069	-0.675782	
7	0.0350	-0.344234	1.557331	-0.539544	-0.282107	1.546051	-0.762975	-0.280998	1.537891	-0.331486	-0.186222	1.497349	-0.541753	-0.214286	1.043868	-0.424668	-0.192803	1.039373	-0.642021	-0.274576	1.091124	-0.380740	-0.255406	1.090931	-0.705249	-0.393184	1.075900	-0.494030	-0.388605	1.069826	-0.605493	-0.396354	1.084074	-0.545831	-0.276145	0.793595	-0.341574	-0.251842	0.741740	-0.324449	-0.192987	0.768410	-0.315696	-0.209981	0.824737	-0.334252	-0.328488	0.372258	-0.328988	-0.336469	0.332615	-0.343311	-0.277534	0.324119	-0.330510	-0.272998	0.362534	-0.321068	-0.472605	0.078417	-0.439715	-0.311234	0.026860	-0.331360	-0.252103	0.041912	-0.412534	-0.222851	0.030364	-0.406701	-0.212320	0.788472	-0.748525	-0.187277	0.732132	-0.754062	-0.128506	0.750629	-0.735146	-0.144920	0.808502	-0.727484	-0.266504	0.355891	-0.754226	-0.290895	0.323611	-0.752968	-0.239555	0.293741	-0.732198	-0.220670	0.333640	-0.736732	-0.476832	0.073770	-0.685194	-0.299332	0.025650	-0.760040	-0.249002	0.037356	-0.671311	-0.220263	0.028073	-0.675813	
8	0.0400	-0.344837	1.561724	-0.539646	-0.282941	1.550736	-0.763066	-0.281318	1.542725	-0.331700	-0.186792	1.502204	-0.541980	-0.212593	1.048763	-0.424303	-0.191413	1.044065	-0.641557	-0.272838	1.096047	-0.380756	-0.254128	1.095136	-0.704829	-0.391649	1.080088	-0.493508	-0.387232	1.073944	-0.604995	-0.394884	1.088138	-0.545335	-0.276861	0.797796	-0.341698	-0.253289	0.745557	-0.324731	-0.194143	0.771533	-0.315498	-0.210365	0.828065	-0.333796	-0.331894	0.373474	-0.329642	-0.339166	0.333698	-0.343893	-0.280229	0.326073	-0.330625	-0.276301	0.364536	-0.321188	-0.472559	0.079160	-0.439430	-0.311210	0.026834	-0.331340	-0.252158	0.041784	-0.412558	-0.222944	0.030271	-0.406762	-0.214097	0.791700	-0.748537	-0.189791	0.735078	-0.754305	-0.130565	0.752889	-0.736361	-0.146162	0.810931	-0.728561	-0.270066	0.357111	-0.754774	-0.294088	0.324577	-0.753290	-0.242268	0.295297	-0.732859	-0.223863	0.335387	-0.737600	-0.476745	0.074426	-0.685174	-0.299393	0.025635	-0.760009	-0.249025	0.037340	-0.671361	-0.220324	0.028081	-0.675849	
9	0.0450	-0.345516	1.566534	-0.539779	-0.283859	1.555852	-0.763162	-0.281722	1.548061	-0.331950	-0.187383	1.507589	-0.542227	-0.210788	1.054015	-0.423937	-0.189891	1.049041	-0.641006	-0.270815	1.101444	-0.380823	-0.252539	1.099807	-0.704336	-0.389973	1.084751	-0.492911	-0.385704	1.078563	-0.604470	-0.393297	1.092648	-0.544802	-0.277770	0.802408	-0.341899	-0.254971	0.749779	-0.325098	-0.195530	0.774994	-0.315349	-0.210996	0.831742	-0.333381	-0.335486	0.375022	-0.330309	-0.342067	0.335136	-0.344421	-0.283124	0.328373	-0.330761	-0.279800	0.366911	-0.321370	-0.472504	0.080064	-0.439015	-0.311184	0.026809	-0.331317	-0.252228	0.041632	-0.412608	-0.223063	0.030141	-0.406858	-0.216112	0.795346	-0.748515	-0.192645	0.738412	-0.754532	-0.132926	0.755442	-0.737683	-0.147598	0.813665	-0.729743	-0.273976	0.358768	-0.755323	-0.297616	0.325954	-0.753608	-0.245283	0.297275	-0.733636	-0.227380	0.337560	-0.738575	-0.476579	0.075377	-0.685192	-0.299442	0.025618	-0.759970	-0.249038	0.037318	-0.671415	-0.220384	0.028089	-0.675888	
10	0.0500	-0.346248	1.571698	-0.539940	-0.284859	1.561369	-0.763266	-0.282217	1.553858	-0.332228	-0.188003	1.513447	-0.542491	-0.208894	1.059584	-0.423584	-0.188265	1.054302	-0.640406	-0.268641	1.107302	-0.380782	-0.250688	1.104959	-0.703793	-0.388182	1.089851	-0.492252	-0.384081	1.083647	-0.603938	-0.391624	1.097568	-0.544222	-0.278804	0.807453	-0.342137	-0.256798	0.754419	-0.325518	-0.197072	0.778850	-0.315277	-0.211770	0.835857	-0.333059	-0.339206	0.376961	-0.330919	-0.345101	0.336934	-0.344913	-0.286167	0.331056	-0.330921	-0.283429	0.369651	-0.321611	-0.472422	0.081186	-0.438456	-0.311145	0.026783	-0.331288	-0.252318	0.041460	-0.412678	-0.223210	0.030028	-0.406964	-0.218276	0.799491	-0.748442	-0.195735	0.742231	-0.754721	-0.135503	0.758397	-0.739023	-0.149177	0.816805	-0.730937	-0.278083	0.361025	-0.755829	-0.301341	0.327941	-0.753928	-0.248484	0.299837	-0.734508	-0.231085	0.340312	-0.739606	-0.476314	0.076675	-0.685278	-0.299487	0.025600	-0.759908	-0.249045	0.037289	-0.671471	-0.220449	0.028095	-0.675924	
11	0.0550	-0.347028	1.577185	-0.540130	-0.285928	1.567250	-0.763374	-0.282798	1.560072	-0.332529	-0.188652	1.519717	-0.542772	-0.206931	1.065447	-0.423258	-0.186557	1.059843	-0.639782	-0.266329	1.113548	-0.380632	-0.248642	1.110591	-0.703209	-0.386299	1.095350	-0.491537	-0.382386	1.089143	-0.603386	-0.389880	1.102859	-0.543607	-0.279903	0.812920	-0.342405	-0.258682	0.759493	-0.325972	-0.198670	0.783119	-0.315277	-0.212615	0.840377	-0.332857	-0.342991	0.379357	-0.331475	-0.348235	0.339171	-0.345410	-0.289311	0.334131	-0.331107	-0.287143	0.372793	-0.321921	-0.472291	0.082568	-0.437743	-0.311089	0.026758	-0.331254	-0.252450	0.041325	-0.412726	-0.223385	0.029932	-0.407081	-0.220502	0.804184	-0.748310	-0.198938	0.746591	-0.754854	-0.138191	0.761854	-0.740304	-0.150837	0.820433	-0.732074	-0.282242	0.364013	-0.756272	-0.305127	0.330673	-0.754230	-0.251756	0.303096	-0.735457	-0.234847	0.343753	-0.740642	-0.475941	0.078350	-0.685435	-0.299524	0.025587	-0.759825	-0.249046	0.037254	-0.671530	-0.220525	0.028092	-0.675953	
